<?xml version="1.0"?>
<svg xmlns="http://www.w3.org/2000/svg" id="Filled" viewBox="0 0 512 512" width="512" height="512"><path d="M432,136a40.119,40.119,0,0,0-8.766.975A39.995,39.995,0,0,0,362.326,85.18C353.222,67.9,334.111,56,312,56c-25.132,0-46.4,15.374-53.485,36.545a40,40,0,0,0-55.908,49.664A40,40,0,0,0,224,216H432a40,40,0,0,0,0-80Z" style="fill:#35a872"/><circle cx="208" cy="208" r="72" style="fill:#f7b030"/><circle cx="336" cy="232" r="72" style="fill:#b1bd70"/><path d="M176,168h0a16,16,0,0,1-16,16H64a16,16,0,0,1-16-16h0a63.783,63.783,0,0,1,20.04-46.5A63.856,63.856,0,0,0,88,75.08V72h48v3.08a63.856,63.856,0,0,0,19.96,46.42A63.783,63.783,0,0,1,176,168Z" style="fill:#e9eef2"/><path d="M176,168a16,16,0,0,1-16,16H64a16,16,0,0,1-16-16,63.746,63.746,0,0,1,20.04-46.5,63.383,63.383,0,0,0,8.24-9.5h71.44a63.383,63.383,0,0,0,8.24,9.5A63.783,63.783,0,0,1,176,168Z" style="fill:#a3d4f7"/><path d="M64,280h96a16,16,0,0,1,16,16v72a32,32,0,0,1-32,32H80a32,32,0,0,1-32-32V296A16,16,0,0,1,64,280Z" style="fill:#a3d4f7"/><path d="M88,40h48a16,16,0,0,1,16,16V72a0,0,0,0,1,0,0H72a0,0,0,0,1,0,0V56A16,16,0,0,1,88,40Z" style="fill:#2d85cc"/><rect x="48" y="184" width="128" height="48" rx="16" ry="16" style="fill:#a3d4f7"/><rect x="48" y="232" width="128" height="48" rx="16" ry="16" style="fill:#a3d4f7"/><path d="M160,240H64a8,8,0,0,1,0-16h96a8,8,0,0,1,0,16Z" style="fill:#99c7e8"/><path d="M160,288H64a8,8,0,0,1,0-16h96a8,8,0,0,1,0,16Z" style="fill:#99c7e8"/><path d="M434.658,472H77.342c-12.17,0-22.414-8.573-23.836-19.949L24,216H488L458.494,452.051C457.072,463.427,446.828,472,434.658,472Z" style="fill:#eb423f"/><rect x="24" y="216" width="464" height="48" style="fill:#d13330"/><path d="M361.951,239.323l96,176A16,16,0,1,0,486.043,400l-96-176Z" style="fill:#f74643"/><path d="M150.049,239.659l-96,176a16,16,0,0,1-28.092-15.324l96-176Z" style="fill:#f74643"/><path d="M96,376a8,8,0,0,0-8,8v48a8,8,0,0,0,16,0V384A8,8,0,0,0,96,376Z"/><path d="M128,376a8,8,0,0,0-8,8v48a8,8,0,0,0,16,0V384A8,8,0,0,0,128,376Z"/><path d="M160,296a8,8,0,0,0-8,8v48a8,8,0,0,0,16,0V304A8,8,0,0,0,160,296Z"/><path d="M160,376a8,8,0,0,0-8,8v48a8,8,0,0,0,16,0V384A8,8,0,0,0,160,376Z"/><path d="M192,296a8,8,0,0,0-8,8v48a8,8,0,0,0,16,0V304A8,8,0,0,0,192,296Z"/><path d="M192,376a8,8,0,0,0-8,8v48a8,8,0,0,0,16,0V384A8,8,0,0,0,192,376Z"/><path d="M320,296a8,8,0,0,0-8,8v48a8,8,0,0,0,16,0V304A8,8,0,0,0,320,296Z"/><path d="M320,376a8,8,0,0,0-8,8v48a8,8,0,0,0,16,0V384A8,8,0,0,0,320,376Z"/><path d="M352,296a8,8,0,0,0-8,8v48a8,8,0,0,0,16,0V304A8,8,0,0,0,352,296Z"/><path d="M352,376a8,8,0,0,0-8,8v48a8,8,0,0,0,16,0V384A8,8,0,0,0,352,376Z"/><path d="M384,376a8,8,0,0,0-8,8v48a8,8,0,0,0,16,0V384A8,8,0,0,0,384,376Z"/><path d="M416,376a8,8,0,0,0-8,8v48a8,8,0,0,0,16,0V384A8,8,0,0,0,416,376Z"/><path d="M256,296a8,8,0,0,0-8,8v48a8,8,0,0,0,16,0V304A8,8,0,0,0,256,296Z"/><path d="M256,376a8,8,0,0,0-8,8v48a8,8,0,0,0,16,0V384A8,8,0,0,0,256,376Z"/><path d="M224,296a8,8,0,0,0-8,8v48a8,8,0,0,0,16,0V304A8,8,0,0,0,224,296Z"/><path d="M224,376a8,8,0,0,0-8,8v48a8,8,0,0,0,16,0V384A8,8,0,0,0,224,376Z"/><path d="M288,296a8,8,0,0,0-8,8v48a8,8,0,0,0,16,0V304A8,8,0,0,0,288,296Z"/><path d="M288,376a8,8,0,0,0-8,8v48a8,8,0,0,0,16,0V384A8,8,0,0,0,288,376Z"/><path d="M477.182,367.047l11.891-95.127A8,8,0,0,0,496,264V216a8,8,0,0,0-8-8H467.739a47.969,47.969,0,0,0-30.595-79.726,47.985,47.985,0,0,0-73.125-55.265C352.12,57.379,332.99,48,312,48c-25.077,0-47.31,13.428-57.792,34.155A47.989,47.989,0,0,0,192,128c0,.54.018,1.078.036,1.617a80.159,80.159,0,0,0-16.157,5.1,72.178,72.178,0,0,0-14.424-19.033A56.065,56.065,0,0,1,144.234,80H152a8,8,0,0,0,8-8V56a24.027,24.027,0,0,0-24-24H88A24.027,24.027,0,0,0,64,56V72a8,8,0,0,0,8,8h7.766a56.061,56.061,0,0,1-17.221,35.685A71.307,71.307,0,0,0,40,168a23.9,23.9,0,0,0,6.131,16A23.9,23.9,0,0,0,40,200v8H24a8,8,0,0,0-8,8v48a8,8,0,0,0,6.927,7.92l11.925,95.4L18.934,396.5a23.956,23.956,0,0,0,23.981,35.309l2.653,21.23C47.489,468.411,61.148,480,77.342,480H434.658c16.193,0,29.853-11.589,31.774-26.957l2.695-21.561a23.7,23.7,0,0,0,14.362-2.751,24,24,0,0,0,9.577-32.562ZM480,224v32H416.611l-17.455-32Zm-7.062,48-8.875,71-38.725-71ZM240,96a31.63,31.63,0,0,1,14.806,3.633,8,8,0,0,0,11.3-4.548C272.325,76.492,290.771,64,312,64c18.3,0,35.275,9.778,43.248,24.91a8,8,0,0,0,13.012,1.636A32,32,0,0,1,424,112a31.643,31.643,0,0,1-7.011,19.976,8,8,0,0,0,7.993,12.806A32,32,0,1,1,432,208H412.327a80.016,80.016,0,0,0-126.586-38.246q-2.691,2.177-5.174,4.573A79.981,79.981,0,0,0,208,128,32.036,32.036,0,0,1,240,96ZM395.333,208H276.667A64.417,64.417,0,0,1,295.8,182.2a64.01,64.01,0,0,1,80.4,0A64.417,64.417,0,0,1,395.333,208ZM181.667,149.66A64.039,64.039,0,0,1,248.2,158.2a64.368,64.368,0,0,1,20.744,30.222A80.1,80.1,0,0,0,259.673,208H184v-8a23.9,23.9,0,0,0-6.131-16A23.9,23.9,0,0,0,184,168,72.65,72.65,0,0,0,181.667,149.66ZM373.336,224l-15.217,8.3a8,8,0,0,0-3.192,10.854L361.934,256H150.248l6.824-12.51a8,8,0,0,0-3.192-10.854L138.048,224ZM80,56a8.009,8.009,0,0,1,8-8h48a8.009,8.009,0,0,1,8,8v8H80Zm58.229,56H85.771A72.293,72.293,0,0,0,95.809,80h32.382A72.293,72.293,0,0,0,138.229,112ZM72.845,128h78.31A55.422,55.422,0,0,1,168,168a8.009,8.009,0,0,1-8,8H64a8.009,8.009,0,0,1-8-8A55.421,55.421,0,0,1,72.845,128ZM56,200a8.009,8.009,0,0,1,8-8h96a8.009,8.009,0,0,1,8,8v8H56ZM32,256V224h81.027L95.573,256Zm54.845,16L47.971,343.269,39.062,272ZM47.026,411.828A8.009,8.009,0,0,1,39.989,416a7.9,7.9,0,0,1-3.817-.979,8.01,8.01,0,0,1-3.193-10.854l92.17-168.978,14.046,7.662Zm403.529,39.231c-.922,7.378-7.756,12.941-15.9,12.941H77.342c-8.141,0-14.975-5.563-15.9-12.941l-3.405-27.242a24.009,24.009,0,0,0,3.033-4.327L120,311.456V352a8,8,0,0,0,16,0V304a7.993,7.993,0,0,0-7.581-7.979L141.521,272h229.14l13.1,24.012A7.994,7.994,0,0,0,376,304v48a8,8,0,0,0,16,0V311.122l58.927,108.032a23.992,23.992,0,0,0,3.07,4.368Zm29.117-41.14a8,8,0,0,1-14.7,1.574L372.8,242.516l14.047-7.662L479.02,403.831A7.953,7.953,0,0,1,479.672,409.919Z"/></svg>
